<svg width="156" height="25" viewBox="0 0 156 25" fill="none" xmlns="http://www.w3.org/2000/svg">
<path d="M72.9083 14.2394C69.9066 14.2394 67.5975 12.7914 67.5398 9.9557H71.1188C71.2343 11.0417 71.8693 11.5244 72.8506 11.5244C73.832 11.5244 74.467 11.0417 74.467 10.197C74.467 7.66304 67.5398 8.99037 67.5975 4.10337C67.5975 1.50903 69.7334 0.0610352 72.6197 0.0610352C75.6215 0.0610352 77.6419 1.56937 77.8151 4.1637H74.1783C74.1206 3.2587 73.4856 2.77603 72.562 2.7157C71.7538 2.7157 71.1188 3.13804 71.1188 3.9827C71.1188 6.39604 77.9305 5.31004 77.9305 9.89537C77.9305 12.3087 76.141 14.2394 72.9083 14.2394Z" fill="white"/>
<path d="M78.9104 0.240967H82.7203L85.3757 6.03296L88.0312 0.240967H91.7834L86.9921 9.47196V14.0573H83.644V9.47196L78.9104 0.240967Z" fill="white"/>
<path d="M98.1913 14.2384C95.1895 14.2384 92.8805 12.7904 92.8228 9.95472H96.4018C96.5172 11.0407 97.1522 11.5234 98.1336 11.5234C99.1149 11.5234 99.7499 11.0407 99.7499 10.1961C99.7499 7.66206 92.8228 8.98939 92.8805 4.10239C92.8805 1.50806 95.0164 0.0600586 97.9027 0.0600586C100.904 0.0600586 102.925 1.56839 103.098 4.16273H99.4613C99.4036 3.25773 98.7686 2.77506 97.845 2.71472C97.0368 2.71472 96.4018 3.13706 96.4018 3.98173C96.4018 6.39506 103.213 5.30906 103.213 9.8944C103.271 12.3077 101.424 14.2384 98.1913 14.2384Z" fill="white"/>
<path d="M104.599 0.240967H115.278V2.95597H111.641V14.0573H108.293V2.95597H104.657V0.240967H104.599Z" fill="white"/>
<path d="M125.438 2.95597H120.358V5.73129H124.861V8.32563H120.358V11.3423H125.438V14.0573H116.952V0.240967H125.438V2.95597Z" fill="white"/>
<path d="M127.632 0.240967H131.615L135.483 9.77363L139.35 0.240967H143.333V14.0573H139.985V5.79163L136.868 14.0573H134.155L131.038 5.73129V14.0573H127.69V0.240967H127.632Z" fill="white"/>
<path d="M150.665 14.2384C147.663 14.2384 145.354 12.7904 145.296 9.95472H148.875C148.991 11.0407 149.626 11.5234 150.607 11.5234C151.588 11.5234 152.223 11.0407 152.223 10.1961C152.223 7.66206 145.296 8.98939 145.354 4.10239C145.354 1.50806 147.49 0.0600586 150.376 0.0600586C153.378 0.0600586 155.398 1.56839 155.571 4.16273H151.935C151.877 3.25773 151.242 2.77506 150.318 2.71472C149.51 2.71472 148.875 3.13706 148.875 3.98173C148.875 6.39506 155.687 5.30906 155.687 9.8944C155.744 12.3077 153.897 14.2384 150.665 14.2384Z" fill="white"/>
<path d="M70.7723 18.823H68.1746V21.1157H70.5414V21.6587H68.1746V24.0117H70.7723V24.5547H67.4819V18.28H70.7146V18.823H70.7723Z" fill="white"/>
<path d="M72.619 18.2808V24.0124H74.8703V24.4951H71.984V18.2808H72.619Z" fill="white"/>
<path d="M78.97 18.8238H76.3723V21.1164H78.7391V21.6594H76.3723V24.0124H78.97V24.5554H75.7373V18.2808H78.97V18.8238Z" fill="white"/>
<path d="M82.9522 18.2207C84.3376 18.2207 85.3767 18.9447 85.8385 20.091H85.0881C84.7417 19.2464 83.9913 18.7637 82.9522 18.7637C81.5668 18.7637 80.5277 19.7894 80.5277 21.4184C80.5277 23.0474 81.5668 24.0127 82.9522 24.0127C83.9913 24.0127 84.7417 23.4697 85.0881 22.6854H85.8385C85.3767 23.8317 84.3376 24.5557 82.9522 24.5557C81.2204 24.5557 79.8927 23.2284 79.8927 21.4184C79.8927 19.6084 81.2204 18.2207 82.9522 18.2207Z" fill="white"/>
<path d="M86.6455 18.2808H90.7441V18.8238H89.0123V24.4951H88.3773V18.8238H86.6455V18.2808Z" fill="white"/>
<path d="M93.5738 18.2808C95.017 18.2808 95.7097 19.0651 95.7097 20.0908C95.7097 20.9354 95.2479 21.6594 94.1511 21.8404L95.7674 24.4951H95.017L93.4584 21.9008H92.3038V24.4951H91.7266V18.2808H93.5738ZM93.5738 18.8238H92.3038V21.4181H93.5738C94.6129 21.4181 95.017 20.8751 95.017 20.0908C95.0747 19.3064 94.6129 18.8238 93.5738 18.8238Z" fill="white"/>
<path d="M96.9219 18.2808H97.5569V24.4951H96.9219V18.2808Z" fill="white"/>
<path d="M101.713 18.2207C103.098 18.2207 104.137 18.9447 104.599 20.091H103.848C103.502 19.2464 102.752 18.7637 101.713 18.7637C100.327 18.7637 99.2881 19.7894 99.2881 21.4184C99.2881 23.0474 100.327 24.0127 101.713 24.0127C102.752 24.0127 103.502 23.4697 103.848 22.6854H104.599C104.137 23.8317 103.098 24.5557 101.713 24.5557C99.9808 24.5557 98.6531 23.2284 98.6531 21.4184C98.6531 19.6084 100.039 18.2207 101.713 18.2207Z" fill="white"/>
<path d="M109.448 23.0473H106.62L106.1 24.4953H105.465L107.717 18.3413H108.409L110.661 24.4953H110.026L109.448 23.0473ZM108.063 19.186L106.851 22.5646H109.333L108.063 19.186Z" fill="white"/>
<path d="M112.278 18.2808V24.0124H114.529V24.4951H111.643V18.2808H112.278Z" fill="white"/>
<path d="M119.725 24.5555C118.455 24.5555 117.646 23.8315 117.646 22.8662H118.281C118.339 23.4092 118.743 24.0125 119.725 24.0125C120.591 24.0125 121.11 23.5298 121.11 22.8662C121.11 21.0562 117.704 22.2025 117.704 19.8495C117.704 18.8842 118.512 18.1602 119.725 18.1602C120.937 18.1602 121.63 18.8238 121.745 19.6685H121.052C120.995 19.2462 120.591 18.7032 119.725 18.7032C118.974 18.7032 118.397 19.0652 118.397 19.7892C118.397 21.5992 121.803 20.4528 121.803 22.8058C121.745 23.7108 121.052 24.5555 119.725 24.5555Z" fill="white"/>
<path d="M126.189 18.8238H123.591V21.1164H125.958V21.6594H123.591V24.0124H126.189V24.5554H122.956V18.2808H126.189V18.8238Z" fill="white"/>
<path d="M129.307 18.2808C130.75 18.2808 131.443 19.0651 131.443 20.0908C131.443 20.9354 130.981 21.6594 129.884 21.8404L131.501 24.4951H130.75L129.191 21.9008H128.037V24.4951H127.402V18.2808H129.307ZM129.307 18.8238H128.037V21.4181H129.307C130.346 21.4181 130.75 20.8751 130.75 20.0908C130.75 19.3064 130.346 18.8238 129.307 18.8238Z" fill="white"/>
<path d="M136.926 18.2808H137.561L135.194 24.4951H134.501L132.134 18.2808H132.827L134.848 23.8314L136.926 18.2808Z" fill="white"/>
<path d="M138.543 18.2808H139.178V24.4951H138.543V18.2808Z" fill="white"/>
<path d="M143.334 18.2207C144.719 18.2207 145.758 18.9447 146.22 20.091H145.47C145.123 19.2464 144.373 18.7637 143.334 18.7637C141.948 18.7637 140.909 19.7894 140.909 21.4184C140.909 23.0474 141.948 24.0127 143.334 24.0127C144.373 24.0127 145.123 23.4697 145.47 22.6854H146.22C145.758 23.8317 144.719 24.5557 143.334 24.5557C141.602 24.5557 140.274 23.2284 140.274 21.4184C140.274 19.6084 141.602 18.2207 143.334 18.2207Z" fill="white"/>
<path d="M150.665 18.8238H148.067V21.1164H150.434V21.6594H148.067V24.0124H150.665V24.5554H147.432V18.2808H150.665V18.8238Z" fill="white"/>
<path d="M153.783 24.5555C152.513 24.5555 151.705 23.8315 151.705 22.8662H152.34C152.398 23.4092 152.802 24.0125 153.783 24.0125C154.649 24.0125 155.168 23.5298 155.168 22.8662C155.168 21.0562 151.763 22.2025 151.763 19.8495C151.763 18.8842 152.571 18.1602 153.783 18.1602C154.995 18.1602 155.688 18.8238 155.803 19.6685H155.111C155.053 19.2462 154.649 18.7032 153.783 18.7032C153.033 18.7032 152.455 19.0652 152.455 19.7892C152.455 21.5992 155.861 20.4528 155.861 22.8058C155.803 23.7108 155.111 24.5555 153.783 24.5555Z" fill="white"/>
<path d="M21.7051 0.0610352V24.5564H14.3739V15.0237H7.38897V24.5564H0V0.0610352H7.33124V8.8697H14.3739V0.0610352H21.7051Z" fill="white"/>
<path d="M54.4914 18.7634H61.5917V24.5554H47.1602V0.0600586H54.4914V18.7634Z" fill="white"/>
<path d="M37.2909 9.65333H31.6337L35.3859 0H28.5165L24.0715 14.661H29.7287L25.9765 24.3143L37.2909 9.65333Z" fill="white"/>
<path d="M36.2529 0L33.8284 6.57634L35.2715 8.869L38.8506 8.92934L34.2325 14.9023H39.1392L45.2582 24.4953L36.2529 0Z" fill="white"/>
</svg>
